<svg width="26" height="26" viewBox="0 0 26 26" fill="none" xmlns="http://www.w3.org/2000/svg">
<g filter="url(#filter0_d_102_157)">
<path d="M21.7851 6.67391L10.7851 17.6739C10.7212 17.7378 10.6454 17.7885 10.562 17.8231C10.4785 17.8577 10.389 17.8755 10.2987 17.8755C10.2083 17.8755 10.1189 17.8577 10.0354 17.8231C9.95196 17.7885 9.87614 17.7378 9.81229 17.6739L4.99979 12.8614C4.87078 12.7324 4.79831 12.5574 4.79831 12.375C4.79831 12.1926 4.87078 12.0176 4.99979 11.8886C5.12879 11.7596 5.30375 11.6871 5.48619 11.6871C5.66863 11.6871 5.84359 11.7596 5.9726 11.8886L10.2987 16.2155L20.8123 5.70109C20.9413 5.57209 21.1163 5.49962 21.2987 5.49962C21.4811 5.49962 21.6561 5.57209 21.7851 5.70109C21.9141 5.8301 21.9866 6.00506 21.9866 6.1875C21.9866 6.36994 21.9141 6.5449 21.7851 6.67391Z" fill="#9E78CF"/>
</g>
<defs>
<filter id="filter0_d_102_157" x="-1.95129" y="0" width="30" height="30" filterUnits="userSpaceOnUse" color-interpolation-filters="sRGB">
<feFlood flood-opacity="0" result="BackgroundImageFix"/>
<feColorMatrix in="SourceAlpha" type="matrix" values="0 0 0 0 0 0 0 0 0 0 0 0 0 0 0 0 0 0 127 0" result="hardAlpha"/>
<feOffset dy="4"/>
<feGaussianBlur stdDeviation="2"/>
<feComposite in2="hardAlpha" operator="out"/>
<feColorMatrix type="matrix" values="0 0 0 0 0 0 0 0 0 0 0 0 0 0 0 0 0 0 0.25 0"/>
<feBlend mode="normal" in2="BackgroundImageFix" result="effect1_dropShadow_102_157"/>
<feBlend mode="normal" in="SourceGraphic" in2="effect1_dropShadow_102_157" result="shape"/>
</filter>
</defs>
</svg>
